<svg xmlns="http://www.w3.org/2000/svg" viewBox="0 0 32 32"><path fill-rule="evenodd" clip-rule="evenodd" fill="#70CF32" d="M15.9 0c8.8 0 15.9 7.1 15.9 15.9C29.1 4.6 16.7 3 11 5.9c-3.7 1.9-8 8-4.5 14.6C2.1 18 .7 6.3 8.5 1.8 10.7.6 13.2 0 15.9 0m15.4 20.4c-1.5 5.7-6.3 10.1-12.2 11.3-1.4.3-3.4.4-4.8.2C6.3 31.1 0 24.3 0 16.1 0 12.4 1.3 9 3.4 6.3c-3.4 7.2-.9 16.4 7.8 16.4-.4 3.1 3 2.3 3.9 5.6l.3 1.1c-1.1 1.3.2 2.3 1.5 1.8.9-.4 1.1-1.9-.2-2.2-.3-.7-.5-1.1-.7-2-.4-1.6.2-3 2.4-2.2 1 .4 2 .9 2.9 1.4 0 .5.3.9.8 1.1.8.3 2 0 2.4-.7.4-.8 0-1.7-.8-2-.5-.2-1-.1-1.4.1-1.1-.3-2.2-.6-3.2-1-2.3-.9-1.6-2.2.3-2.3 1-.1 2.1-.2 3-.4.6.5 1.9.3 2.4-.5.4-.8.2-1.6-.6-1.9-1.3-.5-2.1.6-2.1 1.2-3.3 2.2-14.9.3-14.9-2.5.2-2.2 2.6-4.4 5.8-6 .5-1.2 2.4-2 3.3-1.3 3.3-1.1 7.5-1.2 9.5.9 1.7.3 6.9 4.1 5.5 9.5m-13.2-5.6c1.2 0 2 .8 1.8 1.8-.2.9-1.3 1.7-2.4 1.7-1.2 0-2-.8-1.8-1.8.2-1 1.2-1.7 2.4-1.7"/></svg>